<svg xmlns="http://www.w3.org/2000/svg" viewBox="0 0 158 158" role="img" aria-label="Starknet">
  <path fill-rule="evenodd" clip-rule="evenodd" d="M0 79c0 43.63 35.37 79 79 79s79-35.37 79-79S122.63 0 79 0 0 35.37 0 79Z" fill="#0C0C4F"/>
  <path fill-rule="evenodd" clip-rule="evenodd" d="m44.154 60.388 1.95-6.024a3.128 3.128 0 0 1 2.594-2.555l6.054-1.862c.838-.256.845-1.439.013-1.708l-6.027-1.95a3.142 3.142 0 0 1-2.554-2.594l-1.86-6.054c-.256-.836-1.439-.845-1.708-.011l-1.95 6.024a3.124 3.124 0 0 1-2.593 2.553l-6.054 1.86c-.838.258-.847 1.439-.013 1.708l6.027 1.95a3.142 3.142 0 0 1 2.554 2.596l1.86 6.052c.256.838 1.439.847 1.708.013Z" fill="#FAFAFA"/>
  <path fill-rule="evenodd" clip-rule="evenodd" d="M139.848 56.881c-2.496-2.791-6.391-4.362-10.178-5.007-3.817-.619-7.82-.561-11.588.108-7.625 1.29-14.552 4.447-20.594 8.342-3.137 1.911-5.813 4.123-8.585 6.376-1.335 1.139-2.553 2.353-3.821 3.549l-3.465 3.448c-3.765 3.936-7.476 7.52-11.067 10.492-3.605 2.958-6.975 5.204-10.297 6.772-3.319 1.577-6.871 2.504-11.501 2.653-4.589.162-10.019-.667-15.826-2.033-5.839-1.361-11.97-3.301-18.822-4.97 2.391 6.632 5.991 12.494 10.613 17.852 4.676 5.265 10.516 10.063 18.018 13.22 7.393 3.226 16.684 4.384 25.371 2.637 8.711-1.677 16.354-5.707 22.533-10.37 6.194-4.709 11.206-10.073 15.431-15.65 1.166-1.541 1.783-2.403 2.627-3.608l2.333-3.456c1.621-2.137 3.097-4.571 4.701-6.689 3.146-4.435 6.248-8.865 9.852-12.946 1.814-2.07 3.727-4.05 5.985-5.953 1.126-.929 2.343-1.838 3.691-2.657 1.368-.883 2.813-1.575 4.592-2.11Z" fill="#EC796B"/>
  <path fill-rule="evenodd" clip-rule="evenodd" d="M139.848 56.88c-2.681-6.766-7.666-12.462-14.357-16.664-6.65-4.157-15.886-6.278-25.039-4.47-4.521.875-8.902 2.558-12.746 4.8-3.827 2.233-7.256 4.922-10.225 7.805-1.483 1.447-2.828 2.957-4.164 4.474l-3.463 4.416-5.35 7.109c-6.82 9.146-14.165 19.865-26.218 23.041-11.832 3.118-16.964.357-24.186-.784 1.32 3.409 2.956 6.72 5.173 9.632 2.176 2.971 4.747 5.762 7.942 8.155 1.615 1.149 3.32 2.283 5.214 3.245 1.885.929 3.918 1.747 6.088 2.362 4.316 1.183 9.175 1.598 13.88.961 4.707-.628 9.206-2.119 13.139-4.1 3.962-1.963 7.413-4.353 10.494-6.875 6.125-5.087 10.89-10.707 14.915-16.389 2.024-2.84 3.861-5.735 5.561-8.63l2-3.447c.612-1.007 1.23-2.02 1.858-2.964 2.535-3.793 5.014-6.835 8.025-9.118 2.969-2.341 7.104-4.072 12.629-4.474 5.502-.407 11.854.345 18.83 1.913Z" fill="#FAFAFA"/>
  <circle cx="119.081" cy="113.097" r="9" fill="#EC796B"/>
</svg>
